<?xml version="1.0" encoding="utf-8" standalone="no"?>
<!DOCTYPE svg PUBLIC "-//W3C//DTD SVG 1.1//EN"
  "http://www.w3.org/Graphics/SVG/1.1/DTD/svg11.dtd">
<svg xmlns:xlink="http://www.w3.org/1999/xlink" width="158.797905pt" height="162pt" viewBox="0 0 158.797905 162" xmlns="http://www.w3.org/2000/svg" version="1.1">
 <metadata>
  <rdf:RDF xmlns:dc="http://purl.org/dc/elements/1.1/" xmlns:cc="http://creativecommons.org/ns#" xmlns:rdf="http://www.w3.org/1999/02/22-rdf-syntax-ns#">
   <cc:Work>
    <dc:type rdf:resource="http://purl.org/dc/dcmitype/StillImage"/>
    <dc:date>2026-01-24T21:37:32.594816</dc:date>
    <dc:format>image/svg+xml</dc:format>
    <dc:creator>
     <cc:Agent>
      <dc:title>Matplotlib v3.10.8, https://matplotlib.org/</dc:title>
     </cc:Agent>
    </dc:creator>
   </cc:Work>
  </rdf:RDF>
 </metadata>
 <defs>
  <style type="text/css">*{stroke-linejoin: round; stroke-linecap: butt}</style>
 </defs>
 <g id="figure_1">
  <g id="patch_1">
   <path d="M 0 162 
L 158.797905 162 
L 158.797905 0 
L 0 0 
L 0 162 
z
" style="fill: none"/>
  </g>
  <g id="axes_1">
   <g id="patch_2">
    <path d="M 82.353833 26.697581 
C 82.353833 25.508236 81.880863 24.366386 81.039869 23.525391 
C 80.198874 22.684397 79.057024 22.211427 77.867678 22.211427 
C 76.678333 22.211427 75.536483 22.684397 74.695488 23.525391 
C 73.854494 24.366386 73.381524 25.508236 73.381524 26.697581 
" clip-path="url(#pd19e1d2ad9)" style="fill: none; stroke: #000000; stroke-width: 2; stroke-linejoin: miter"/>
   </g>
   <g id="patch_3">
    <path d="M 91.326142 26.697581 
C 91.326142 25.508236 90.853172 24.366386 90.012178 23.525391 
C 89.171183 22.684397 88.029333 22.211427 86.839987 22.211427 
C 85.650641 22.211427 84.508792 22.684397 83.667797 23.525391 
C 82.826803 24.366386 82.353833 25.508236 82.353833 26.697581 
" clip-path="url(#pd19e1d2ad9)" style="fill: none; stroke: #000000; stroke-width: 2; stroke-linejoin: miter"/>
   </g>
   <g id="patch_4">
    <path d="M 100.298451 26.697581 
C 100.298451 25.508236 99.825481 24.366386 98.984486 23.525391 
C 98.143492 22.684397 97.001642 22.211427 95.812296 22.211427 
C 94.62295 22.211427 93.4811 22.684397 92.640106 23.525391 
C 91.799111 24.366386 91.326142 25.508236 91.326142 26.697581 
" clip-path="url(#pd19e1d2ad9)" style="fill: none; stroke: #000000; stroke-width: 2; stroke-linejoin: miter"/>
   </g>
   <g id="patch_5">
    <path d="M 109.27076 26.697581 
C 109.27076 25.508236 108.79779 24.366386 107.956795 23.525391 
C 107.115801 22.684397 105.973951 22.211427 104.784605 22.211427 
C 103.595259 22.211427 102.453409 22.684397 101.612415 23.525391 
C 100.77142 24.366386 100.298451 25.508236 100.298451 26.697581 
" clip-path="url(#pd19e1d2ad9)" style="fill: none; stroke: #000000; stroke-width: 2; stroke-linejoin: miter"/>
   </g>
   <g id="line2d_1">
    <path d="M 37.492288 26.697581 
L 73.381524 26.697581 
M 109.27076 26.697581 
L 145.159995 26.697581 
" clip-path="url(#pd19e1d2ad9)" style="fill: none; stroke: #000000; stroke-width: 2; stroke-linecap: round"/>
   </g>
   <g id="line2d_2">
    <path d="M 145.159995 26.697581 
L 145.159995 77.301404 
M 154.132304 77.301404 
L 136.187686 77.301404 
M 154.132304 83.761466 
L 136.187686 83.761466 
M 145.159995 83.761466 
L 145.159995 134.365289 
" clip-path="url(#pd19e1d2ad9)" style="fill: none; stroke: #000000; stroke-width: 2; stroke-linecap: round"/>
   </g>
   <g id="line2d_3">
    <path d="M 145.159995 134.365289 
L 145.159995 148.720983 
L 136.187686 148.720983 
L 154.132304 148.720983 
M 138.879379 153.027691 
L 151.440612 153.027691 
M 143.365534 157.334399 
L 146.954457 157.334399 
" clip-path="url(#pd19e1d2ad9)" style="fill: none; stroke: #000000; stroke-width: 2; stroke-linecap: round"/>
   </g>
   <g id="text_1">
    <!-- L -->
    <g transform="translate(87.425829 15.710963) scale(0.14 -0.14)">
     <defs>
      <path id="DejaVuSans-4c" d="M 628 4666 
L 1259 4666 
L 1259 531 
L 3531 531 
L 3531 0 
L 628 0 
L 628 4666 
z
" transform="scale(0.015625)"/>
     </defs>
     <use xlink:href="#DejaVuSans-4c"/>
    </g>
   </g>
   <g id="text_2">
    <!-- C -->
    <g transform="translate(122.822825 84.39456) scale(0.14 -0.14)">
     <defs>
      <path id="DejaVuSans-43" d="M 4122 4306 
L 4122 3641 
Q 3803 3938 3442 4084 
Q 3081 4231 2675 4231 
Q 1875 4231 1450 3742 
Q 1025 3253 1025 2328 
Q 1025 1406 1450 917 
Q 1875 428 2675 428 
Q 3081 428 3442 575 
Q 3803 722 4122 1019 
L 4122 359 
Q 3791 134 3420 21 
Q 3050 -91 2638 -91 
Q 1578 -91 968 557 
Q 359 1206 359 2328 
Q 359 3453 968 4101 
Q 1578 4750 2638 4750 
Q 3056 4750 3426 4639 
Q 3797 4528 4122 4306 
z
" transform="scale(0.015625)"/>
     </defs>
     <use xlink:href="#DejaVuSans-43"/>
    </g>
   </g>
   <g id="patch_6">
    <path d="M 37.492288 29.389274 
C 38.206133 29.389274 38.890838 29.10566 39.395602 28.600896 
C 39.900367 28.096131 40.183981 27.411427 40.183981 26.697581 
C 40.183981 25.983736 39.900367 25.299032 39.395602 24.794267 
C 38.890838 24.289502 38.206133 24.005889 37.492288 24.005889 
C 36.778443 24.005889 36.093739 24.289502 35.588974 24.794267 
C 35.084209 25.299032 34.800596 25.983736 34.800596 26.697581 
C 34.800596 27.411427 35.084209 28.096131 35.588974 28.600896 
C 36.093739 29.10566 36.778443 29.389274 37.492288 29.389274 
z
" clip-path="url(#pd19e1d2ad9)" style="fill: #ffffff; stroke: #000000; stroke-width: 2; stroke-linejoin: miter"/>
   </g>
   <g id="text_3">
    <!-- Port -->
    <g transform="translate(3.467609 30.560706) scale(0.14 -0.14)">
     <defs>
      <path id="DejaVuSans-50" d="M 1259 4147 
L 1259 2394 
L 2053 2394 
Q 2494 2394 2734 2622 
Q 2975 2850 2975 3272 
Q 2975 3691 2734 3919 
Q 2494 4147 2053 4147 
L 1259 4147 
z
M 628 4666 
L 2053 4666 
Q 2838 4666 3239 4311 
Q 3641 3956 3641 3272 
Q 3641 2581 3239 2228 
Q 2838 1875 2053 1875 
L 1259 1875 
L 1259 0 
L 628 0 
L 628 4666 
z
" transform="scale(0.015625)"/>
      <path id="DejaVuSans-6f" d="M 1959 3097 
Q 1497 3097 1228 2736 
Q 959 2375 959 1747 
Q 959 1119 1226 758 
Q 1494 397 1959 397 
Q 2419 397 2687 759 
Q 2956 1122 2956 1747 
Q 2956 2369 2687 2733 
Q 2419 3097 1959 3097 
z
M 1959 3584 
Q 2709 3584 3137 3096 
Q 3566 2609 3566 1747 
Q 3566 888 3137 398 
Q 2709 -91 1959 -91 
Q 1206 -91 779 398 
Q 353 888 353 1747 
Q 353 2609 779 3096 
Q 1206 3584 1959 3584 
z
" transform="scale(0.015625)"/>
      <path id="DejaVuSans-72" d="M 2631 2963 
Q 2534 3019 2420 3045 
Q 2306 3072 2169 3072 
Q 1681 3072 1420 2755 
Q 1159 2438 1159 1844 
L 1159 0 
L 581 0 
L 581 3500 
L 1159 3500 
L 1159 2956 
Q 1341 3275 1631 3429 
Q 1922 3584 2338 3584 
Q 2397 3584 2469 3576 
Q 2541 3569 2628 3553 
L 2631 2963 
z
" transform="scale(0.015625)"/>
      <path id="DejaVuSans-74" d="M 1172 4494 
L 1172 3500 
L 2356 3500 
L 2356 3053 
L 1172 3053 
L 1172 1153 
Q 1172 725 1289 603 
Q 1406 481 1766 481 
L 2356 481 
L 2356 0 
L 1766 0 
Q 1100 0 847 248 
Q 594 497 594 1153 
L 594 3053 
L 172 3053 
L 172 3500 
L 594 3500 
L 594 4494 
L 1172 4494 
z
" transform="scale(0.015625)"/>
     </defs>
     <use xlink:href="#DejaVuSans-50"/>
     <use xlink:href="#DejaVuSans-6f" transform="translate(56.677734 0)"/>
     <use xlink:href="#DejaVuSans-72" transform="translate(117.859375 0)"/>
     <use xlink:href="#DejaVuSans-74" transform="translate(158.972656 0)"/>
    </g>
   </g>
   <g id="patch_7">
    <path d="M 145.159995 29.389274 
C 145.873841 29.389274 146.558545 29.10566 147.063309 28.600896 
C 147.568074 28.096131 147.851688 27.411427 147.851688 26.697581 
C 147.851688 25.983736 147.568074 25.299032 147.063309 24.794267 
C 146.558545 24.289502 145.873841 24.005889 145.159995 24.005889 
C 144.44615 24.005889 143.761446 24.289502 143.256681 24.794267 
C 142.751916 25.299032 142.468303 25.983736 142.468303 26.697581 
C 142.468303 27.411427 142.751916 28.096131 143.256681 28.600896 
C 143.761446 29.10566 144.44615 29.389274 145.159995 29.389274 
z
" clip-path="url(#pd19e1d2ad9)" style="stroke: #000000; stroke-width: 2; stroke-linejoin: miter"/>
   </g>
  </g>
 </g>
 <defs>
  <clipPath id="pd19e1d2ad9">
   <rect x="0" y="0" width="158.797905" height="162"/>
  </clipPath>
 </defs>
</svg>
