<svg xmlns="http://www.w3.org/2000/svg" width="1920" height="1080" viewBox="0 0 1920 1080" fill="none">
  <defs>
    <linearGradient id="bgF" x1="80" y1="70" x2="1840" y2="1000" gradientUnits="userSpaceOnUse">
      <stop offset="0" stop-color="#061520"/>
      <stop offset="0.56" stop-color="#0c1424"/>
      <stop offset="1" stop-color="#170f25"/>
    </linearGradient>
    <linearGradient id="stepF" x1="260" y1="300" x2="1660" y2="860" gradientUnits="userSpaceOnUse">
      <stop offset="0" stop-color="#67eeff"/>
      <stop offset="0.5" stop-color="#84ffc6"/>
      <stop offset="1" stop-color="#ffc98e"/>
    </linearGradient>
    <pattern id="gridF" width="26" height="26" patternUnits="userSpaceOnUse">
      <path d="M26 0H0V26" stroke="#89abc2" stroke-opacity="0.14"/>
    </pattern>
    <filter id="glowF" x="-55%" y="-55%" width="210%" height="210%">
      <feGaussianBlur stdDeviation="5" result="blur"/>
      <feMerge>
        <feMergeNode in="blur"/>
        <feMergeNode in="SourceGraphic"/>
      </feMerge>
    </filter>
  </defs>

  <rect width="1920" height="1080" fill="url(#bgF)"/>
  <rect width="1920" height="1080" fill="url(#gridF)"/>

  <g font-family="Inter, Segoe UI, Arial, sans-serif">
    <text x="148" y="162" fill="#f3fbff" font-size="72" font-weight="700">Superconducting Circuit Tutorial</text>
    <text x="148" y="220" fill="#cde6ff" font-size="34">Simulation &amp; Analysis using ANSYS HFSS + JosephsonCircuits.jl</text>
  </g>

  <g>
    <rect x="120" y="280" width="540" height="640" rx="30" fill="#0a1d2b" fill-opacity="0.7" stroke="#79c0ea" stroke-opacity="0.45"/>
    <text x="166" y="348" fill="#ddf1ff" font-size="30" font-family="Inter, Segoe UI, Arial, sans-serif" font-weight="600">Step 1  Superconducting Circuit</text>
    <rect x="166" y="384" width="448" height="490" rx="22" fill="#05131f" stroke="#69b8e4" stroke-opacity="0.6"/>
    <path d="M210 486H570" stroke="#6f9ec1" stroke-opacity="0.52"/>
    <path d="M210 596H570" stroke="#6f9ec1" stroke-opacity="0.52"/>
    <path d="M210 706H570" stroke="#6f9ec1" stroke-opacity="0.42"/>
    <path d="M252 432V832" stroke="#6f9ec1" stroke-opacity="0.35"/>
    <path d="M392 432V832" stroke="#6f9ec1" stroke-opacity="0.35"/>
    <path d="M532 432V832" stroke="#6f9ec1" stroke-opacity="0.35"/>
    <path d="M236 560h80l44-64h94l42 74h90" stroke="#79f3dc" stroke-width="4" fill="none" filter="url(#glowF)"/>
    <path d="M236 710h68l46-56h104l38 72h94" stroke="#6fd9ff" stroke-width="4" fill="none" filter="url(#glowF)"/>
  </g>

  <g filter="url(#glowF)">
    <path d="M692 602C780 602 832 562 904 562C974 562 1018 602 1098 602" stroke="url(#stepF)" stroke-width="5" fill="none"/>
    <path d="M692 682C786 682 840 726 912 726C980 726 1024 682 1098 682" stroke="url(#stepF)" stroke-width="4" fill="none" opacity="0.82"/>
  </g>

  <g>
    <rect x="1130" y="280" width="670" height="300" rx="30" fill="#0a1d2b" fill-opacity="0.7" stroke="#79c0ea" stroke-opacity="0.45"/>
    <text x="1176" y="348" fill="#ddf1ff" font-size="30" font-family="Inter, Segoe UI, Arial, sans-serif" font-weight="600">Step 2  ANSYS HFSS Simulation</text>
    <rect x="1176" y="384" width="578" height="152" rx="18" fill="#06131f" stroke="#67b4e1" stroke-opacity="0.6"/>
    <path d="M1218 504H1710" stroke="#6f9ac0" stroke-opacity="0.46"/>
    <path d="M1218 472H1710" stroke="#6f9ac0" stroke-opacity="0.36"/>
    <path d="M1218 440H1710" stroke="#6f9ac0" stroke-opacity="0.26"/>
    <path d="M1230 500L1302 468L1372 486L1440 426L1512 440L1598 414L1706 454" stroke="#78fde0" stroke-width="3" fill="none" filter="url(#glowF)"/>
    <path d="M1230 492L1308 440L1384 420L1454 464L1528 482L1610 456L1706 432" stroke="#8db5ff" stroke-width="3" fill="none" filter="url(#glowF)"/>
  </g>

  <g>
    <rect x="1130" y="620" width="670" height="300" rx="30" fill="#0a1d2b" fill-opacity="0.7" stroke="#79c0ea" stroke-opacity="0.45"/>
    <text x="1176" y="688" fill="#ddf1ff" font-size="30" font-family="Inter, Segoe UI, Arial, sans-serif" font-weight="600">Step 3  JosephsonCircuits.jl Analysis</text>
    <rect x="1176" y="724" width="578" height="152" rx="18" fill="#06131f" stroke="#67b4e1" stroke-opacity="0.6"/>
    <path d="M1218 844H1710" stroke="#6f9ac0" stroke-opacity="0.46"/>
    <path d="M1218 804H1710" stroke="#6f9ac0" stroke-opacity="0.34"/>
    <path d="M1218 764H1710" stroke="#6f9ac0" stroke-opacity="0.22"/>
    <path d="M1232 840C1300 758 1376 724 1452 762C1536 802 1608 784 1708 708" stroke="#ffc98c" stroke-width="4" fill="none" filter="url(#glowF)"/>
    <path d="M1232 832C1312 710 1388 664 1466 688C1556 716 1632 694 1708 646" stroke="#b09eff" stroke-width="4" fill="none" filter="url(#glowF)"/>
  </g>
</svg>
