<svg xmlns="http://www.w3.org/2000/svg" xmlns:xlink="http://www.w3.org/1999/xlink" xml:lang="en" height="191.44pt" width="296.96000000000004pt" viewBox="-15.880000000000003 -151.8 296.96000000000004 191.44"><circle cx="18.719999999999995" cy="-54.0" r="18.0" style="stroke:black;fill:none;stroke-width:2.0;stroke-dasharray:-;" /><path d="M 124.74 -108.0 a 4.5 4.5 -0.0 1 1 9.000000000000014 0.0" style="stroke:black;fill:none;stroke-width:2.0;stroke-dasharray:-;" /><path d="M 133.74 -108.0 a 4.5 4.5 -0.0 1 1 9.0 0.0" style="stroke:black;fill:none;stroke-width:2.0;stroke-dasharray:-;" /><path d="M 142.74 -108.0 a 4.5 4.5 -0.0 1 1 9.0 0.0" style="stroke:black;fill:none;stroke-width:2.0;stroke-dasharray:-;" /><path d="M 151.74 -108.0 a 4.5 4.5 -0.0 1 1 9.0 0.0" style="stroke:black;fill:none;stroke-width:2.0;stroke-dasharray:-;" /><path d="M 18.71999999999999,-0.0 L 18.719999999999995,-36.0 L 18.719999999999995,-36.0 M 18.719999999999995,-72.0 L 18.719999999999995,-72.0 L 18.72,-108.0" style="stroke:black;fill:none;stroke-width:2.0;stroke-dasharray:-;stroke-linecap:round;stroke-linejoin:round;" /><path d="M 27.719999999999995,-54.0 L 26.969999999999995,-55.86349712473816 L 26.22,-57.6 L 25.469999999999995,-59.091168824543146 L 24.719999999999995,-60.23538290724795 L 23.97,-60.95466594928129 L 23.219999999999995,-61.199999999999996 L 22.469999999999995,-60.9546659492813 L 21.72,-60.23538290724795 L 20.969999999999995,-59.09116882454314 L 20.219999999999995,-57.6 L 19.47,-55.863497124738146 L 18.719999999999995,-54.0 L 17.97,-52.136502875261854 L 17.22,-50.400000000000006 L 16.469999999999995,-48.908831175456854 L 15.719999999999995,-47.76461709275205 L 14.969999999999999,-47.04533405071871 L 14.219999999999997,-46.800000000000004 L 13.469999999999995,-47.0453340507187 L 12.719999999999999,-47.76461709275205 L 11.969999999999997,-48.90883117545686 L 11.219999999999995,-50.4 L 10.469999999999999,-52.136502875261854 L 9.719999999999997,-54.0" style="stroke:black;fill:none;stroke-width:2.0;stroke-dasharray:-;stroke-linecap:round;stroke-linejoin:round;" /><path d="M 64.8,-108.0 L 41.76,-108.0 L 18.71999999999999,-108.0" style="stroke:black;fill:none;stroke-width:2.0;stroke-dasharray:-;stroke-linecap:round;stroke-linejoin:round;" /><path d="M 18.71999999999999,-0.0 L 18.71999999999999,14.4 L 9.719999999999992,14.4 L 27.71999999999999,14.4 M 12.419999999999993,18.72 L 25.019999999999996,18.72 M 16.919999999999995,23.04 L 20.519999999999996,23.04" style="stroke:black;fill:none;stroke-width:2.0;stroke-dasharray:-;stroke-linecap:round;stroke-linejoin:round;" /><path d="M 104.39999999999998,-0.0 L 104.39999999999998,-36.0 L 95.39999999999998,-39.0 L 113.39999999999998,-45.0 L 95.39999999999998,-50.99999999999999 L 113.39999999999998,-57.0 L 95.39999999999998,-63.0 L 113.39999999999998,-69.0 L 104.39999999999998,-72.0 L 104.39999999999998,-108.0" style="stroke:black;fill:none;stroke-width:2.0;stroke-dasharray:-;stroke-linecap:round;stroke-linejoin:round;" /><path d="M 64.8,-108.0 L 84.6,-108.0 L 104.39999999999998,-108.0" style="stroke:black;fill:none;stroke-width:2.0;stroke-dasharray:-;stroke-linecap:round;stroke-linejoin:round;" /><path d="M 18.71999999999999,-0.0 L 61.55999999999999,-0.0 L 104.39999999999998,-0.0" style="stroke:black;fill:none;stroke-width:2.0;stroke-dasharray:-;stroke-linecap:round;stroke-linejoin:round;" /><path d="M 64.8,-108.0 L 124.74,-108.0 M 160.74,-108.0 L 220.68,-108.0" style="stroke:black;fill:none;stroke-width:2.0;stroke-dasharray:-;stroke-linecap:round;stroke-linejoin:round;" /><path d="M 220.68,-0.0 L 220.68,-50.76 M 211.68,-50.76 L 229.68,-50.76 M 211.68,-57.239999999999995 L 229.68,-57.239999999999995 M 220.68,-57.239999999999995 L 220.68,-108.0" style="stroke:black;fill:none;stroke-width:2.0;stroke-dasharray:-;stroke-linecap:round;stroke-linejoin:round;" /><path d="M 104.39999999999998,-0.0 L 162.54,-0.0 L 220.68,-0.0" style="stroke:black;fill:none;stroke-width:2.0;stroke-dasharray:-;stroke-linecap:round;stroke-linejoin:round;" /><text x="18.72" y="-135.2" dominant-baseline="ideographic" fill="black" font-size="11" font-family="sans" text-anchor="start"><tspan x="18.72" dy="11">P1</tspan></text><text x="138.59999999999997" y="-66.44" dominant-baseline="central" fill="black" font-size="11" font-family="sans" text-anchor="start"><tspan x="138.59999999999997" dy="11">R1</tspan></text><text x="138.59999999999997" y="-54.64" dominant-baseline="central" fill="black" font-size="10" font-family="sans" text-anchor="start"><tspan x="138.59999999999997" dy="10">50 Ohm</tspan></text><text x="68.4" y="-119.60000000000001" dominant-baseline="ideographic" fill="gray" font-size="8" font-family="sans" text-anchor="middle"><tspan x="68.4" dy="8">n1</tspan></text><text x="107.99999999999999" y="2.8000000000000007" dominant-baseline="central" fill="gray" font-size="8" font-family="sans" text-anchor="middle"><tspan x="107.99999999999999" dy="8">gnd</tspan></text><text x="142.74" y="-135.01997770431487" dominant-baseline="ideographic" fill="black" font-size="11" font-family="sans" text-anchor="middle"><tspan x="142.74" dy="11">L1</tspan></text><text x="142.74" y="-107.91999999999999" dominant-baseline="hanging" fill="black" font-size="10" font-family="sans" text-anchor="middle"><tspan x="142.74" dy="10">10 nH</tspan></text><text x="224.27999999999997" y="-119.60000000000001" dominant-baseline="central" fill="gray" font-size="8" font-family="sans" text-anchor="start"><tspan x="224.27999999999997" dy="8">n2</tspan></text><text x="245.16000000000003" y="-66.44" dominant-baseline="central" fill="black" font-size="11" font-family="sans" text-anchor="start"><tspan x="245.16000000000003" dy="11">C1</tspan></text><text x="245.16000000000003" y="-54.64" dominant-baseline="central" fill="black" font-size="10" font-family="sans" text-anchor="start"><tspan x="245.16000000000003" dy="10">1 pF</tspan></text></svg>