<svg xmlns="http://www.w3.org/2000/svg" xmlns:xlink="http://www.w3.org/1999/xlink" xml:lang="en" height="195.76000000000002pt" width="529.976pt" viewBox="-19.47999999999999 -156.12 529.976 195.76000000000002"><circle cx="15.12000000000001" cy="-54.0" r="18.0" style="stroke:black;fill:none;stroke-width:2.0;stroke-dasharray:-;" /><circle cx="330.696" cy="-54.0" r="18.0" style="stroke:black;fill:none;stroke-width:2.0;stroke-dasharray:-;" /><path d="M 124.56 -108.0 a 4.5 4.5 -0.0 1 1 9.0 0.0" style="stroke:black;fill:none;stroke-width:2.0;stroke-dasharray:-;" /><path d="M 133.56 -108.0 a 4.5 4.5 -0.0 1 1 9.0 0.0" style="stroke:black;fill:none;stroke-width:2.0;stroke-dasharray:-;" /><path d="M 142.56 -108.0 a 4.5 4.5 -0.0 1 1 9.0 0.0" style="stroke:black;fill:none;stroke-width:2.0;stroke-dasharray:-;" /><path d="M 151.56 -108.0 a 4.5 4.5 -0.0 1 1 9.0 0.0" style="stroke:black;fill:none;stroke-width:2.0;stroke-dasharray:-;" /><path d="M 15.120000000000005,-0.0 L 15.120000000000008,-36.0 L 15.120000000000008,-36.0 M 15.12000000000001,-72.0 L 15.12000000000001,-72.0 L 15.120000000000012,-108.0" style="stroke:black;fill:none;stroke-width:2.0;stroke-dasharray:-;stroke-linecap:round;stroke-linejoin:round;" /><path d="M 24.120000000000008,-54.0 L 23.370000000000008,-55.86349712473816 L 22.62000000000001,-57.6 L 21.870000000000008,-59.091168824543146 L 21.120000000000008,-60.23538290724795 L 20.37000000000001,-60.95466594928129 L 19.620000000000008,-61.199999999999996 L 18.870000000000008,-60.9546659492813 L 18.12000000000001,-60.23538290724795 L 17.370000000000008,-59.09116882454314 L 16.62000000000001,-57.6 L 15.870000000000008,-55.863497124738146 L 15.12000000000001,-54.0 L 14.37000000000001,-52.136502875261854 L 13.620000000000012,-50.400000000000006 L 12.87000000000001,-48.908831175456854 L 12.120000000000008,-47.76461709275205 L 11.370000000000012,-47.04533405071871 L 10.62000000000001,-46.800000000000004 L 9.870000000000008,-47.0453340507187 L 9.120000000000012,-47.76461709275205 L 8.370000000000008,-48.90883117545686 L 7.620000000000009,-50.4 L 6.87000000000001,-52.136502875261854 L 6.120000000000008,-54.0" style="stroke:black;fill:none;stroke-width:2.0;stroke-dasharray:-;stroke-linecap:round;stroke-linejoin:round;" /><path d="M 64.8,-108.0 L 39.96,-108.0 L 15.120000000000005,-108.0" style="stroke:black;fill:none;stroke-width:2.0;stroke-dasharray:-;stroke-linecap:round;stroke-linejoin:round;" /><path d="M 15.120000000000005,-0.0 L 15.120000000000005,14.4 L 6.120000000000005,14.4 L 24.120000000000005,14.4 M 8.820000000000006,18.72 L 21.42000000000001,18.72 M 13.320000000000006,23.04 L 16.920000000000005,23.04" style="stroke:black;fill:none;stroke-width:2.0;stroke-dasharray:-;stroke-linecap:round;stroke-linejoin:round;" /><path d="M 330.696,-0.0 L 330.696,-36.0 L 330.696,-36.0 M 330.696,-72.0 L 330.696,-72.0 L 330.696,-108.0" style="stroke:black;fill:none;stroke-width:2.0;stroke-dasharray:-;stroke-linecap:round;stroke-linejoin:round;" /><path d="M 339.696,-54.0 L 338.94599999999997,-55.86349712473816 L 338.196,-57.6 L 337.446,-59.091168824543146 L 336.69599999999997,-60.23538290724795 L 335.946,-60.95466594928129 L 335.196,-61.199999999999996 L 334.44599999999997,-60.9546659492813 L 333.696,-60.23538290724795 L 332.946,-59.09116882454314 L 332.19599999999997,-57.6 L 331.446,-55.863497124738146 L 330.696,-54.0 L 329.94599999999997,-52.136502875261854 L 329.196,-50.400000000000006 L 328.446,-48.908831175456854 L 327.69599999999997,-47.76461709275205 L 326.946,-47.04533405071871 L 326.196,-46.800000000000004 L 325.44599999999997,-47.0453340507187 L 324.696,-47.76461709275205 L 323.946,-48.90883117545686 L 323.19599999999997,-50.4 L 322.446,-52.136502875261854 L 321.696,-54.0" style="stroke:black;fill:none;stroke-width:2.0;stroke-dasharray:-;stroke-linecap:round;stroke-linejoin:round;" /><path d="M 380.376,-108.0 L 355.536,-108.0 L 330.696,-108.0" style="stroke:black;fill:none;stroke-width:2.0;stroke-dasharray:-;stroke-linecap:round;stroke-linejoin:round;" /><path d="M 15.120000000000005,-0.0 L 172.908,-0.0 L 330.696,-0.0" style="stroke:black;fill:none;stroke-width:2.0;stroke-dasharray:-;stroke-linecap:round;stroke-linejoin:round;" /><path d="M 108.0,-0.0 L 108.0,-36.0 L 99.0,-39.0 L 117.0,-45.0 L 99.0,-50.99999999999999 L 117.0,-57.0 L 99.0,-63.0 L 117.0,-69.0 L 108.0,-72.0 L 108.0,-108.0" style="stroke:black;fill:none;stroke-width:2.0;stroke-dasharray:-;stroke-linecap:round;stroke-linejoin:round;" /><path d="M 64.8,-108.0 L 86.39999999999999,-108.0 L 108.0,-108.0" style="stroke:black;fill:none;stroke-width:2.0;stroke-dasharray:-;stroke-linecap:round;stroke-linejoin:round;" /><path d="M 330.696,-0.0 L 219.348,-1.3636197179145948e-14 L 108.0,-2.7272394358291897e-14" style="stroke:black;fill:none;stroke-width:2.0;stroke-dasharray:-;stroke-linecap:round;stroke-linejoin:round;" /><path d="M 423.5759999999999,-0.0 L 423.5759999999999,-36.0 L 414.5759999999999,-39.0 L 432.5759999999999,-45.0 L 414.5759999999999,-50.99999999999999 L 432.5759999999999,-57.0 L 414.5759999999999,-63.0 L 432.5759999999999,-69.0 L 423.5759999999999,-72.0 L 423.5759999999999,-108.0" style="stroke:black;fill:none;stroke-width:2.0;stroke-dasharray:-;stroke-linecap:round;stroke-linejoin:round;" /><path d="M 380.376,-108.0 L 401.97599999999994,-108.0 L 423.5759999999999,-108.0" style="stroke:black;fill:none;stroke-width:2.0;stroke-dasharray:-;stroke-linecap:round;stroke-linejoin:round;" /><path d="M 108.0,-0.0 L 265.78799999999995,-0.0 L 423.5759999999999,-0.0" style="stroke:black;fill:none;stroke-width:2.0;stroke-dasharray:-;stroke-linecap:round;stroke-linejoin:round;" /><path d="M 64.8,-108.0 L 124.56,-108.0 M 160.56,-108.0 L 220.32,-108.0" style="stroke:black;fill:none;stroke-width:2.0;stroke-dasharray:-;stroke-linecap:round;stroke-linejoin:round;" /><path d="M 220.32,-108.0 L 297.108,-108.0 M 297.108,-117.0 L 297.108,-99.0 M 303.58799999999997,-117.0 L 303.58799999999997,-99.0 M 303.58799999999997,-108.0 L 380.376,-108.0" style="stroke:black;fill:none;stroke-width:2.0;stroke-dasharray:-;stroke-linecap:round;stroke-linejoin:round;" /><text x="15.120000000000013" y="-135.2" dominant-baseline="ideographic" fill="black" font-size="11" font-family="sans" text-anchor="start"><tspan x="15.120000000000013" dy="11">P1</tspan></text><text x="330.696" y="-135.2" dominant-baseline="ideographic" fill="black" font-size="11" font-family="sans" text-anchor="start"><tspan x="330.696" dy="11">P2</tspan></text><text x="142.2" y="-66.44" dominant-baseline="central" fill="black" font-size="11" font-family="sans" text-anchor="start"><tspan x="142.2" dy="11">Rsig</tspan></text><text x="142.2" y="-54.64" dominant-baseline="central" fill="black" font-size="10" font-family="sans" text-anchor="start"><tspan x="142.2" dy="10">50 Ohm</tspan></text><text x="61.199999999999996" y="-112.39999999999999" dominant-baseline="ideographic" fill="gray" font-size="8" font-family="sans" text-anchor="middle"><tspan x="61.199999999999996" dy="8">n_sig</tspan></text><text x="104.39999999999999" y="10.0" dominant-baseline="central" fill="gray" font-size="8" font-family="sans" text-anchor="middle"><tspan x="104.39999999999999" dy="8">gnd</tspan></text><text x="457.77599999999995" y="-66.44" dominant-baseline="central" fill="black" font-size="11" font-family="sans" text-anchor="start"><tspan x="457.77599999999995" dy="11">Rpump</tspan></text><text x="457.77599999999995" y="-54.64" dominant-baseline="central" fill="black" font-size="10" font-family="sans" text-anchor="start"><tspan x="457.77599999999995" dy="10">50 Ohm</tspan></text><text x="383.97599999999994" y="-119.60000000000001" dominant-baseline="ideographic" fill="gray" font-size="8" font-family="sans" text-anchor="middle"><tspan x="383.97599999999994" dy="8">n_pump</tspan></text><text x="142.56" y="-135.01997770431487" dominant-baseline="ideographic" fill="black" font-size="11" font-family="sans" text-anchor="middle"><tspan x="142.56" dy="11">Lcore</tspan></text><text x="142.56" y="-107.91999999999999" dominant-baseline="hanging" fill="black" font-size="10" font-family="sans" text-anchor="middle"><tspan x="142.56" dy="10">1.2 nH</tspan></text><text x="223.92" y="-119.60000000000001" dominant-baseline="central" fill="gray" font-size="8" font-family="sans" text-anchor="start"><tspan x="223.92" dy="8">n_core</tspan></text><text x="300.348" y="-139.52" dominant-baseline="ideographic" fill="black" font-size="11" font-family="sans" text-anchor="middle"><tspan x="300.348" dy="11">Ccore</tspan></text><text x="300.348" y="-98.91999999999999" dominant-baseline="hanging" fill="black" font-size="10" font-family="sans" text-anchor="middle"><tspan x="300.348" dy="10">0.25 pF</tspan></text></svg>
